<svg xmlns="http://www.w3.org/2000/svg" viewBox="0 0 346.13 158.6"><title>Asset 1</title><g id="Layer_2" data-name="Layer 2"><g id="Layer_1-2" data-name="Layer 1"><polygon points="338.63 36.63 291.91 158.6 299.4 158.6 346.13 36.58 338.63 36.63"/><polygon points="245.2 36.63 291.91 158.6 284.43 158.6 237.7 36.58 245.2 36.63"/><polygon points="225.24 36.63 178.53 158.6 186.01 158.6 232.74 36.58 225.24 36.63"/><polygon points="198.13 36.63 151.42 158.6 158.91 158.6 205.63 36.58 198.13 36.63"/><polygon points="154.2 36.73 161.73 36.62 175.75 0 168.25 0.04 154.2 36.73"/><polygon points="124.61 73.45 132.14 73.34 146.16 36.73 138.66 36.77 124.61 73.45"/><polygon points="107.51 73.45 115.04 73.34 129.06 36.73 121.56 36.77 107.51 73.45"/><polygon points="100.93 36.63 54.22 158.6 61.7 158.6 108.43 36.58 100.93 36.63"/><polygon points="46.71 36.63 0 158.6 7.49 158.6 54.22 36.58 46.71 36.63"/><polygon points="314.81 36.63 268.09 158.6 275.58 158.6 322.31 36.58 314.81 36.63"/><polygon points="60.03 36.55 50.53 36.66 50.79 44.66 57.1 44.58 60.03 36.55"/><polygon points="49.46 158.56 58.97 158.6 58.83 150.6 52.52 150.57 49.46 158.56"/></g></g></svg>