<?xml version="1.0" encoding="utf-8"?>
<!-- Generator: Adobe Illustrator 24.0.3, SVG Export Plug-In . SVG Version: 6.00 Build 0)  -->
<svg version="1.1" id="Layer_1" xmlns="http://www.w3.org/2000/svg" xmlns:xlink="http://www.w3.org/1999/xlink" x="0px" y="0px"
	 viewBox="0 0 1920 1080" style="enable-background:new 0 0 1920 1080;" xml:space="preserve">
<style type="text/css">
	.st0{fill:#68BEB6;}
	.st1{clip-path:url(#SVGID_2_);fill:none;stroke:#231F20;stroke-width:1.7978;}
	.st2{clip-path:url(#SVGID_2_);fill:#7B75B6;}
</style>
<rect x="176.9" y="0.9" class="st0" width="1562.7" height="1078.6"/>
<g>
	<defs>
		<rect id="SVGID_1_" x="176" width="1564.5" height="1080.4"/>
	</defs>
	<clipPath id="SVGID_2_">
		<use xlink:href="#SVGID_1_"  style="overflow:visible;"/>
	</clipPath>
	<rect x="176.9" y="0.9" class="st1" width="1562.7" height="1078.6"/>
	<path class="st2" d="M255.8,176.1c0,0,9.5-59.5,27.7-79C301.7,77.5,300,77.5,339,75.8c39.1-1.7,42.5,13.6,86.6,28.9
		c44.2,15.3,57.8,22.1,88.3,53.5c30.6,31.4,3.4,11.9,41.6,41.6c38.2,29.7,51.8,49.3,85.8,52.7c34,3.4,52.7,6.8,35.7,23.8
		c-17,17-40.8,29.7-62.9,47.6c-22.1,17.8-49.3,17-64.6,18.7c-15.3,1.7-3.4,42.5-25.5,57.8c-22.1,15.3-54.6,12.7-54.6,12.7
		s-13.4-16.1-33.8,12.7c-20.4,28.9-27.2,37.4-51,35.7c-23.8-1.7-18.7,12.7-47.6-20.4c-28.9-33.1-35.7-23.8-56.1-58.6
		c-20.4-34.8-34.1-55.2-26.4-75.6c7.7-20.4,28.6-32.3,12.8-59.5c-15.9-27.2-15.9-62.9-15.9-62.9L255.8,176.1z"/>
	<path class="st2" d="M843.6,495.4c-45.9,1.7-57.8-5.9-96.8,39.9c-39.1,45.9-73,33.1-79.8,112.1c-6.8,79-23.8,91.7,5.1,135
		c28.9,43.3,15.3,73,83.2,101.9s107,42.5,149.5,18.7c42.5-23.8,66.2,0,96.8-71.3c30.6-71.3,50.1-152.9,25.5-199.6
		c-24.7-46.7-22.1-66.2-59.5-81.5c-37.4-15.3-61.2-30.6-83.2-38.2C862.2,504.8,843.6,495.4,843.6,495.4"/>
	<path class="st2" d="M1276.7,495.4c27.9-27.9,17-93.4-5.1-122.3c-22.1-28.9-83.2-59.4-117.2-81.5c-34-22.1-27.2-36.5-66.3-44.2
		c-39.1-7.6-98.5-25.5-117.2-17c-18.7,8.5-44.2,11.9-32.3,32.3c11.9,20.4,30.6,18.7,73,49.3s1.7-5.1,66.3,56.1
		c64.6,61.2,10.2,27.2,64.6,61.2c54.4,34,45.9,45.7,79.8,56.1C1256.3,495.5,1256.3,515.8,1276.7,495.4"/>
	<path class="st2" d="M1484,658.5c-22.1,15.3-51,51-86.6,56.1c-35.7,5.1-54.4-5-69.6,0.9c-15.3,5.9-22.1-14.5-44.2,26.3
		c-22.1,40.8-59.5,49.3-49.3,105.3c10.2,56.1-15.3,39.9,6.8,106.2c22.1,66.2,11.9,67.1,35.7,82.4c23.8,15.3,327.9,17.9,370.3,9.3
		c42.5-8.6,25.5-14.4,34-75.6c8.5-61.2,22.2-72.2,0.9-143.5c-21.3-71.3-7.7-117.2-43.4-135c-35.7-17.8-56.1-53.5-100.2-45.9
		C1494.2,652.6,1484,658.5,1484,658.5"/>
	<path class="st2" d="M1676,494.2c-47.6,15.3-127.4,22.1-117.2,52.7c10.2,30.6,27.2,27.2,64.6,42.5c37.4,15.3,18.7,16.1,44.2,35.7
		c25.5,19.5,39.1-107.9,32.3-125.7C1693,481.5,1676,494.2,1676,494.2"/>
</g>
<rect y="2" class="st0" width="200" height="1078"/>
<rect x="1725" y="1" class="st0" width="195" height="1079"/>
</svg>
